<?xml version="1.0" encoding="UTF-8"?>
<svg xmlns="http://www.w3.org/2000/svg" version="1.1" viewBox="0 0 815.4 893.44">
  <defs>
    <style>
      .cls-1 {
        fill: #000;
      }

      .cls-1, .cls-2 {
        stroke-width: 0px;
      }

      .cls-3, .cls-4, .cls-5, .cls-6, .cls-7, .cls-8, .cls-9, .cls-10 {
        stroke-miterlimit: 10;
      }

      .cls-3, .cls-4, .cls-6, .cls-7, .cls-8, .cls-9, .cls-10, .cls-2 {
        fill: #fff;
      }

      .cls-3, .cls-5 {
        stroke: #000;
      }

      .cls-11 {
        font-family: OpenSans-Regular, 'Open Sans';
        font-size: 12px;
      }

      .cls-11, .cls-12 {
        fill: #231f20;
      }

      .cls-4 {
        stroke: #b01a1e;
      }

      .cls-5 {
        fill: none;
      }

      .cls-6 {
        stroke: #750b0c;
      }

      .cls-7 {
        stroke: #7a3c7c;
      }

      .cls-8 {
        stroke: #00994a;
      }

      .cls-9 {
        stroke: #e3bb22;
      }

      .cls-10 {
        stroke: #3a56a6;
      }

      .cls-12 {
        font-family: FuturaStd-Medium, 'Futura Std';
        font-size: 22px;
        font-weight: 500;
      }
    </style>
  </defs>
  <g id="Shapes">
    <rect class="cls-10" x="43.53" y="120.38" width="123.05" height="82.04"/>
    <rect class="cls-9" x="143" y="268.55" width="98.99" height="98.99"/>
    <rect class="cls-10" x="221.23" y="120.38" width="123.05" height="82.04"/>
    <rect class="cls-9" x="318.98" y="268.55" width="98.99" height="98.99"/>
    <rect class="cls-8" x="221.23" y="433.68" width="123.05" height="82.04"/>
    <ellipse class="cls-4" cx="472.26" cy="631.34" rx="73.65" ry="48.5"/>
    <polygon class="cls-7" points="734.47 693.71 680.08 655.12 626.57 694.92 646.46 631.26 592.07 592.67 658.76 591.92 678.65 528.26 699.97 591.46 766.66 590.71 713.15 630.51 734.47 693.71"/>
    <rect class="cls-6" x="233.26" y="581.84" width="98.99" height="98.99"/>
    <g>
      <line class="cls-2" x1="166.59" y1="161.4" x2="221.23" y2="161.4"/>
      <g>
        <line class="cls-5" x1="166.59" y1="161.4" x2="215.19" y2="161.4"/>
        <path class="cls-1" d="M221.23,161.4c-2.84,1.05-6.36,2.85-8.55,4.76l1.72-4.76-1.72-4.75c2.18,1.9,5.71,3.7,8.55,4.75Z"/>
      </g>
    </g>
    <g>
      <polyline class="cls-2" points="282.75 202.42 282.75 232.93 192.5 232.93 192.5 268.55"/>
      <g>
        <polyline class="cls-5" points="282.75 202.42 282.75 232.93 192.5 232.93 192.5 262.52"/>
        <path class="cls-1" d="M192.5,268.55c-1.05-2.84-2.85-6.36-4.76-8.55l4.76,1.72,4.75-1.72c-1.9,2.18-3.7,5.71-4.75,8.55Z"/>
      </g>
    </g>
    <g>
      <polyline class="cls-2" points="282.75 232.93 368.48 232.93 368.48 266.47"/>
      <g>
        <polyline class="cls-5" points="282.75 232.93 368.48 232.93 368.48 260.43"/>
        <path class="cls-1" d="M368.48,266.47c-1.05-2.84-2.85-6.36-4.76-8.55l4.76,1.72,4.75-1.72c-1.9,2.18-3.7,5.71-4.75,8.55Z"/>
      </g>
    </g>
    <g>
      <polyline class="cls-2" points="192.5 367.54 192.5 400.6 282.75 400.6 282.75 433.68"/>
      <g>
        <polyline class="cls-5" points="192.5 367.54 192.5 400.6 282.75 400.6 282.75 427.64"/>
        <path class="cls-1" d="M282.75,433.68c-1.05-2.84-2.85-6.36-4.76-8.55l4.76,1.72,4.75-1.72c-1.9,2.18-3.7,5.71-4.75,8.55Z"/>
      </g>
    </g>
    <polyline class="cls-3" points="368.48 367.54 368.48 400.61 282.75 400.6"/>
    <g>
      <line class="cls-2" x1="282.75" y1="515.71" x2="282.75" y2="581.84"/>
      <g>
        <line class="cls-5" x1="282.75" y1="515.71" x2="282.75" y2="575.81"/>
        <path class="cls-1" d="M282.75,581.84c-1.05-2.84-2.85-6.36-4.76-8.55l4.76,1.72,4.75-1.72c-1.9,2.18-3.7,5.71-4.75,8.55Z"/>
      </g>
    </g>
    <g>
      <line class="cls-2" x1="330.22" y1="631.34" x2="398.76" y2="631.34"/>
      <g>
        <line class="cls-5" x1="330.22" y1="631.34" x2="392.72" y2="631.34"/>
        <path class="cls-1" d="M398.76,631.34c-2.84,1.05-6.36,2.85-8.55,4.76l1.72-4.76-1.72-4.75c2.18,1.9,5.71,3.7,8.55,4.75Z"/>
      </g>
    </g>
    <g>
      <line class="cls-2" x1="544.5" y1="631.34" x2="635.54" y2="631.34"/>
      <g>
        <line class="cls-5" x1="544.5" y1="631.34" x2="629.5" y2="631.34"/>
        <path class="cls-1" d="M635.54,631.34c-2.84,1.05-6.36,2.85-8.55,4.76l1.72-4.76-1.72-4.75c2.18,1.9,5.71,3.7,8.55,4.75Z"/>
      </g>
    </g>
  </g>
  <g id="Text">
    <text class="cls-11" transform="translate(73.55 156.66)"><tspan x="0" y="0">Gather all </tspan><tspan x="-4.27" y="14.4">ingredients</tspan></text>
    <text class="cls-11" transform="translate(252.27 158.76)"><tspan x="0" y="0">Measure all </tspan><tspan x="-10.1" y="14.4">ingredients out</tspan></text>
    <text class="cls-11" transform="translate(171.71 313.19)"><tspan x="0" y="0">Mix dry </tspan><tspan x="-10.74" y="14.4">ingredients</tspan></text>
    <text class="cls-11" transform="translate(349.03 313.19)"><tspan x="0" y="0">Mix wet </tspan><tspan x="-9.74" y="14.4">ingredients</tspan></text>
    <text class="cls-11" transform="translate(233.56 472.05)"><tspan x="0" y="0">Combine wet and </tspan><tspan x="6.96" y="14.4">dry ingredients</tspan></text>
    <text class="cls-11" transform="translate(264.08 627.49)"><tspan x="0" y="0">Fold in </tspan><tspan x="-24.46" y="14.4">chocolate chips</tspan></text>
    <text class="cls-11" transform="translate(457.91 635.57)"><tspan x="0" y="0">Bake!</tspan></text>
    <text class="cls-11" transform="translate(657.97 622.93)"><tspan x="0" y="0">Enjoy! :)</tspan></text>
    <text class="cls-12" transform="translate(287.31 60.56)"><tspan x="0" y="0">Baking a Cake Flowchart</tspan></text>
  </g>
</svg>